<svg id="visual" viewBox="0 0 960 540" width="960" height="540" xmlns="http://www.w3.org/2000/svg" xmlns:xlink="http://www.w3.org/1999/xlink" version="1.1"><path d="M0 114L14.5 133.8C29 153.7 58 193.3 87.2 212.3C116.3 231.3 145.7 229.7 174.8 205.3C204 181 233 134 262 125.8C291 117.7 320 148.3 349 159.2C378 170 407 161 436.2 171C465.3 181 494.7 210 523.8 215.5C553 221 582 203 611 185.8C640 168.7 669 152.3 698 136C727 119.7 756 103.3 785.2 101.5C814.3 99.7 843.7 112.3 872.8 129.5C902 146.7 931 168.3 945.5 179.2L960 190L960 0L945.5 0C931 0 902 0 872.8 0C843.7 0 814.3 0 785.2 0C756 0 727 0 698 0C669 0 640 0 611 0C582 0 553 0 523.8 0C494.7 0 465.3 0 436.2 0C407 0 378 0 349 0C320 0 291 0 262 0C233 0 204 0 174.8 0C145.7 0 116.3 0 87.2 0C58 0 29 0 14.5 0L0 0Z" fill="#06213e"></path><path d="M0 357L14.5 357C29 357 58 357 87.2 361.5C116.3 366 145.7 375 174.8 364.3C204 353.7 233 323.3 262 309C291 294.7 320 296.3 349 289C378 281.7 407 265.3 436.2 274.3C465.3 283.3 494.7 317.7 523.8 320.5C553 323.3 582 294.7 611 278.5C640 262.3 669 258.7 698 271.2C727 283.7 756 312.3 785.2 315.8C814.3 319.3 843.7 297.7 872.8 294.2C902 290.7 931 305.3 945.5 312.7L960 320L960 188L945.5 177.2C931 166.3 902 144.7 872.8 127.5C843.7 110.3 814.3 97.7 785.2 99.5C756 101.3 727 117.7 698 134C669 150.3 640 166.7 611 183.8C582 201 553 219 523.8 213.5C494.7 208 465.3 179 436.2 169C407 159 378 168 349 157.2C320 146.3 291 115.7 262 123.8C233 132 204 179 174.8 203.3C145.7 227.7 116.3 229.3 87.2 210.3C58 191.3 29 151.7 14.5 131.8L0 112Z" fill="#061d36"></path><path d="M0 411L14.5 408.3C29 405.7 58 400.3 87.2 401.3C116.3 402.3 145.7 409.7 174.8 400.7C204 391.7 233 366.3 262 352.8C291 339.3 320 337.7 349 335.8C378 334 407 332 436.2 343.7C465.3 355.3 494.7 380.7 523.8 379.8C553 379 582 352 611 342.2C640 332.3 669 339.7 698 350.5C727 361.3 756 375.7 785.2 373.8C814.3 372 843.7 354 872.8 347.7C902 341.3 931 346.7 945.5 349.3L960 352L960 318L945.5 310.7C931 303.3 902 288.7 872.8 292.2C843.7 295.7 814.3 317.3 785.2 313.8C756 310.3 727 281.7 698 269.2C669 256.7 640 260.3 611 276.5C582 292.7 553 321.3 523.8 318.5C494.7 315.7 465.3 281.3 436.2 272.3C407 263.3 378 279.7 349 287C320 294.3 291 292.7 262 307C233 321.3 204 351.7 174.8 362.3C145.7 373 116.3 364 87.2 359.5C58 355 29 355 14.5 355L0 355Z" fill="#06192e"></path><path d="M0 503L14.5 497.7C29 492.3 58 481.7 87.2 479.8C116.3 478 145.7 485 174.8 477.8C204 470.7 233 449.3 262 446.7C291 444 320 460 349 466.2C378 472.3 407 468.7 436.2 465.2C465.3 461.7 494.7 458.3 523.8 456.7C553 455 582 455 611 458.5C640 462 669 469 698 469C727 469 756 462 785.2 463.8C814.3 465.7 843.7 476.3 872.8 479.8C902 483.3 931 479.7 945.5 477.8L960 476L960 350L945.5 347.3C931 344.7 902 339.3 872.8 345.7C843.7 352 814.3 370 785.2 371.8C756 373.7 727 359.3 698 348.5C669 337.7 640 330.3 611 340.2C582 350 553 377 523.8 377.8C494.7 378.7 465.3 353.3 436.2 341.7C407 330 378 332 349 333.8C320 335.7 291 337.3 262 350.8C233 364.3 204 389.7 174.8 398.7C145.7 407.7 116.3 400.3 87.2 399.3C58 398.3 29 403.7 14.5 406.3L0 409Z" fill="#051526"></path><path d="M0 541L14.5 541C29 541 58 541 87.2 541C116.3 541 145.7 541 174.8 541C204 541 233 541 262 541C291 541 320 541 349 541C378 541 407 541 436.2 541C465.3 541 494.7 541 523.8 541C553 541 582 541 611 541C640 541 669 541 698 541C727 541 756 541 785.2 541C814.3 541 843.7 541 872.8 541C902 541 931 541 945.5 541L960 541L960 474L945.5 475.8C931 477.7 902 481.3 872.8 477.8C843.7 474.3 814.3 463.7 785.2 461.8C756 460 727 467 698 467C669 467 640 460 611 456.5C582 453 553 453 523.8 454.7C494.7 456.3 465.3 459.7 436.2 463.2C407 466.7 378 470.3 349 464.2C320 458 291 442 262 444.7C233 447.3 204 468.7 174.8 475.8C145.7 483 116.3 476 87.2 477.8C58 479.7 29 490.3 14.5 495.7L0 501Z" fill="#03101f"></path></svg>