<svg xmlns="http://www.w3.org/2000/svg" viewBox="0 0 1050 1050">
  <g fill="none" fill-rule="evenodd">
    <g fill="currentColor">
      <path d="M690.088 454.02c82.952 105.639 83.06 312.474 199.249 460.963-14.751 0-701.593 1.038-728.668 3.767 5.698-27.689 51.916-35.964 96.9-37.318 121.248-3.087 102.055-65.972 282.84-85.775 42.604-4.662 35.976 24.686 77.03 37.94 114.818 21.592 69.05-176.31 24.06-295.416l48.591-84.161h-.002Z"/>
      <path fill-rule="nonzero" d="M287.6 352.19c-1.156-9.146-9.51-15.624-18.657-14.467-9.146 1.157-15.624 9.511-14.467 18.658 15.102 119.111 53.418 179.28 93.33 202.93 15.796 9.359 31.98 13.232 47.386 12.865 15.537-.37 30.067-5.058 42.485-12.794 26.051-16.227 43.129-46.066 40.912-77.722-.614-9.22-8.586-16.195-17.806-15.581-9.22.615-16.195 8.587-15.581 17.807 1.331 19.02-9.186 37.109-25.201 47.085-7.597 4.732-16.36 7.597-25.594 7.817-9.364.224-19.437-2.272-29.58-8.282C332.58 511.4 301.16 459.142 287.6 352.19ZM363.23 167.93c-8.532 3.58-12.547 13.4-8.968 21.931 3.578 8.532 13.398 12.548 21.93 8.97 99.435-41.747 160.401-40.676 193.06-22.31 10.256 5.767 17.439 13.227 21.916 21.427 4.452 8.155 6.365 17.19 6.066 26.12-.63 18.823-11.029 36.949-28.153 45.298-8.315 4.05-11.774 14.074-7.725 22.39 4.05 8.314 14.074 11.774 22.389 7.724 28.536-13.915 45.848-43.652 46.876-74.363.49-14.636-2.704-29.549-10.125-43.142-7.395-13.547-18.856-25.642-34.879-34.652-40.45-22.747-111.714-25.856-222.386 20.607Z"/>
      <path d="m623.725 358.71 111.47-15.634-143.115 247.88-42.194-104.352c-8.5 3.383-17.367 6.105-25.765 8.13-28.983 6.989-59.022 7.273-88.191 1.133-109.205-22.986-185.27-128.812-233.146-221.818l-4.185-8.13 58.363-101.088 9.134-.441c104.483-5.041 234.162 7.919 308.672 91 19.905 22.195 34.674 48.343 43.115 76.94 2.446 8.288 4.522 17.329 5.842 26.38Z"/>
    </g>
    <path d="M0 0h1050v1050H0z"/>
  </g>
</svg>