<svg xmlns="http://www.w3.org/2000/svg" viewBox="0 0 1050 1050">
  <g fill="none" fill-rule="evenodd">
    <g fill="currentColor">
      <path d="M534.531 827.424c85.601-18.4 96.533-126.34 96.533-126.34 0-70.314 52.548-140.63 52.548-140.63 15.627-198.657-157.64-187.504-157.64-187.504s-173.27-11.153-157.643 187.505c0 0 52.548 70.314 52.548 140.63 0 0 10.932 107.94 96.535 126.339V775.27c-24.087.886-39.794-26.593-39.794-26.593-33.843-43.995 37.225-40.611 37.225-40.611l11.129.94 11.127-.94s71.069-3.384 37.227 40.611c0 0-15.708 27.479-39.794 26.593v52.153h-.001ZM447.158 480.97c-12.86-7.424-27.903-5.443-33.602 4.426-5.698 9.869.108 23.887 12.968 31.313 12.86 7.424 27.903 5.442 33.6-4.427 5.698-9.869-.108-23.887-12.966-31.312Zm157.625 0c12.86-7.424 27.903-5.443 33.6 4.426 5.698 9.869-.107 23.887-12.966 31.313-12.86 7.424-27.903 5.442-33.601-4.427s.107-23.887 12.967-31.312Z"/>
      <path d="M525.036 372.908c9.758-52.555 39.205-114.28 119.97-141.1 139.084-44.506 261.25 80.097 272.658 197.831 6.7 69.148-18.31 123.02-54.935 142.647-32.69 17.518-114.161-1.401-98.799-80.468 24.755 31.996 51.97 33.932 60.47 32.44 48.517-8.506 25.071-224.397-119.327-197.615-37.268 6.913-72.039 34.861-79.512 70.39l-6.085 21.498-94.475-29.738.035-15.884Z"/>
      <path d="M674.528 475.06c42.289-16.883 86.396-46.523 102.305-98.567-58.91 11.72-99.043 28.743-127.907 47.051-28.864 18.308 25.602 51.515 25.602 51.515ZM524.964 372.908c-9.758-52.555-39.205-114.28-119.97-141.1-139.084-44.506-261.25 80.097-272.658 197.831-6.7 69.148 18.31 123.02 54.935 142.647 32.69 17.518 114.161-1.401 98.799-80.468-24.754 31.996-51.97 33.932-60.47 32.44-48.517-8.506-25.07-224.397 119.327-197.615 37.268 6.913 72.039 34.861 79.512 70.39l6.085 21.498 94.475-29.738-.035-15.884Z"/>
      <path d="M375.472 475.06c-42.289-16.883-86.396-46.523-102.305-98.567 58.91 11.72 99.042 28.743 127.907 47.051 28.864 18.308-25.602 51.515-25.602 51.515Z"/>
    </g>
    <path d="M0 0h1050v1050H0z"/>
  </g>
</svg>