<svg xmlns="http://www.w3.org/2000/svg" viewBox="0 0 1050 1050">
  <g fill="none" fill-rule="evenodd">
    <g fill="currentColor">
      <path fill-rule="nonzero" d="M382.007 793.124c6.229-6.547 5.971-16.906-.577-23.135-6.548-6.23-16.906-5.971-23.135.576-41.136 43.214-73.274 107.555-73.367 107.742-4.07 8.07-.828 17.912 7.241 21.982 8.07 4.07 17.912.827 21.982-7.242.087-.174 30.108-60.268 67.856-99.922ZM313.247 727.258c8.707-2.406 13.814-11.417 11.407-20.123-2.406-8.707-11.417-13.814-20.123-11.407-17.747 4.9-40.072 12.839-64.893 25.673-24.716 12.778-52.015 30.457-79.907 54.904-6.795 5.946-7.484 16.276-1.538 23.071 5.946 6.796 16.276 7.484 23.072 1.538 25.62-22.457 50.684-38.69 73.37-50.418 22.577-11.673 42.693-18.842 58.612-23.238ZM267.371 636.845c7.822 4.494 17.807 1.797 22.302-6.024 4.495-7.822 1.798-17.808-6.024-22.303-15.575-8.984-46.617-27.854-73.71-50.204-24.71-20.385-45.877-43.056-45.877-60.9 0-9.062-7.345-16.407-16.406-16.407s-16.407 7.345-16.407 16.406c0 29.696 26.726 60.412 57.926 86.15 28.815 23.772 61.704 43.768 78.196 53.281Z"/>
      <path d="m259.887 359.737 4.103-14.655-79.796-6.404c-14.65 112.03 64.056 175.835 103.564 200.405l41.148-31.616c-27.846-16.495-82.8-60.737-69.019-147.73Z"/>
      <path d="m278.973 272.445 116.48-63.95c28.263 116.928-107.604 190.438-211.259 130.182 0 0-55.96-192.989 173.574-190.704l-78.796 124.472Z"/>
      <path fill-rule="nonzero" d="M691.703 770.566c-6.23-6.548-16.588-6.806-23.136-.577-6.547 6.23-6.805 16.588-.576 23.136 37.748 39.654 67.769 99.748 67.856 99.922 4.07 8.07 13.912 11.312 21.982 7.242 8.07-4.07 11.311-13.913 7.241-21.982-.094-.187-32.231-64.528-73.367-107.742ZM745.47 695.728c-8.707-2.407-17.718 2.7-20.124 11.407-2.407 8.706 2.7 17.717 11.407 20.123 15.919 4.397 36.035 11.565 58.613 23.238 22.685 11.728 47.749 27.96 73.37 50.418 6.795 5.946 17.125 5.257 23.07-1.538 5.946-6.796 5.258-17.126-1.538-23.071-27.89-24.448-55.19-42.126-79.905-54.904-24.822-12.834-47.146-20.772-64.894-25.673ZM766.351 608.518c-7.821 4.495-10.519 14.48-6.024 22.302 4.495 7.822 14.48 10.52 22.303 6.024 20.471-11.808 66.153-39.745 98.275-71.217 21.846-21.404 37.846-45.004 37.846-68.214 0-9.06-7.346-16.406-16.407-16.406-9.06 0-16.406 7.345-16.406 16.406 0 13.029-11.828 29.065-27.976 44.886-29.571 28.973-72.39 55.132-91.61 66.22Z"/>
      <path d="m771.027 272.445-116.48-63.95c-28.263 116.928 107.604 190.438 211.259 130.182 0 0 55.96-192.989-173.573-190.704l78.795 124.472ZM525 848.629s-252.693-12.46-264.787-291.266c0 0 79.66-104.575 264.787-118.484 185.127 13.909 264.787 118.484 264.787 118.484C777.693 836.17 525 848.63 525 848.63Z"/>
      <path fill-rule="nonzero" d="M467.573 316.703c-5.203-7.397-15.419-9.176-22.816-3.973-7.396 5.203-9.175 15.418-3.973 22.815.133.19 46.88 65.472 15.22 127.011-4.141 8.035-.986 17.906 7.049 22.047 8.034 4.14 17.905.985 22.046-7.05 40.845-79.391-17.361-160.615-17.527-160.85ZM606.898 335.545c5.203-7.397 3.424-17.613-3.973-22.815-7.397-5.203-17.612-3.424-22.815 3.973-.165.235-58.371 81.459-17.526 160.85 4.14 8.034 14.011 11.19 22.046 7.05 8.034-4.141 11.19-14.012 7.049-22.047-31.661-61.54 15.086-126.822 15.219-127.011Z"/>
      <path d="m790.115 359.737-4.103-14.655 79.796-6.404c14.65 112.03-64.056 175.835-103.564 200.405l-41.148-31.616c27.846-16.495 82.8-60.737 69.02-147.73h-.001Z"/>
    </g>
    <path d="M0 0h1050v1050H0z"/>
  </g>
</svg>