<svg xmlns="http://www.w3.org/2000/svg" viewBox="0 0 1050 1050">
  <g fill="none" fill-rule="evenodd">
    <g fill="currentColor">
      <path d="M525 917.807a27.34 27.34 0 0 1-2.561.942c-21.664-6.666-50.825-49.158-50.825-49.158v-60.822h106.771v60.822s-29.16 42.492-50.824 49.158a27.341 27.341 0 0 1-2.561-.942ZM398.539 340.72c26.896-106.884-165.922-208.223-165.922-208.223s175.4-27.628 227.479 177.146c0 0-12.635 71.789-61.557 31.076Z"/>
      <path d="M814.324 415.589c-41.832-16.424-154.703-62.722-206.58-103.544-13.364-2.923-43.203-4.475-74.061-4.656v384.704c0 .18-.005.356-.016.532 21.352 2.846 37.559 16.779 37.559 33.538 0 18.816-20.43 34.068-45.634 34.068-.198 0-.395-.003-.592-.005-.197.002-.394.005-.592.005-25.203 0-45.634-15.252-45.634-34.068 0-16.76 16.207-30.692 37.56-33.538a8.605 8.605 0 0 1-.017-.532V307.389c-30.858.18-60.696 1.733-74.06 4.656-51.878 40.822-164.75 87.12-206.581 103.544l130.67 21.769-1.425 8.55 1.459-8.563c4.126.703 7.073 4.208 7.222 8.232l5.261 69.044.088-.008L413.768 679.2c-3.166 160.366 108.67 155.09 108.67 155.09s.917.042 2.561.003c1.645.039 2.562-.003 2.562-.003s111.836 5.276 108.67-155.09l34.817-164.587.088.008 5.26-69.044c.15-4.024 3.097-7.53 7.223-8.232l1.459 8.563-1.425-8.55 130.671-21.77Zm-452.857 99.064c-31.238-1.771-97.067-14.112-136.694-83.31l132.05 21.979 4.644 61.331Zm44.057-59.226s64.232-8.232 63.728 36.793c0 0-61.455 42.055-63.728-36.793Zm283.01 59.226c31.237-1.771 97.067-14.112 136.693-83.31l-132.05 21.979-4.643 61.331Zm-44.058-59.226s-64.232-8.232-63.728 36.793c0 0 61.456 42.055 63.728-36.793Z"/>
      <path d="M651.461 340.72c-26.896-106.884 165.922-208.223 165.922-208.223s-175.4-27.628-227.479 177.146c0 0 12.635 71.789 61.557 31.076Z"/>
    </g>
    <path d="M0 0h1050v1050H0z"/>
  </g>
</svg>