<svg xmlns="http://www.w3.org/2000/svg" viewBox="0 0 1050 1050">
  <g fill="none" fill-rule="evenodd">
    <g fill="currentColor" transform="translate(131.25 159.772)">
      <circle cx="393.729" cy="47.264" r="47.264"/>
      <path d="M419.79 77.791h1.738v552.444h-55.594V77.791h1.741z"/>
      <path d="M246.814 622.032h293.834v58.312H246.814z"/>
      <path d="M178.662 672.143h430.139v58.312H178.662z"/>
      <path fill-rule="nonzero" d="M428.818 136.284c-8.568-3.951-18.718-.208-22.67 8.36-3.951 8.568-.208 18.717 8.36 22.67 29.386 13.574 78.857 33.04 137.052 42.254 39.866 6.312 83.769 7.814 128.104-.626 9.27-1.736 15.378-10.659 13.642-19.928-1.735-9.27-10.658-15.378-19.928-13.642-40.145 7.642-80.094 6.252-116.469.492-54.148-8.574-100.5-26.835-128.09-39.58ZM373.144 167.226c8.568-3.952 12.31-14.101 8.359-22.67-3.952-8.568-14.102-12.31-22.67-8.359-23.04 10.654-59.376 25.23-102.717 34.767-42.855 9.431-92.375 13.86-142.032 4.408-9.27-1.736-18.192 4.373-19.928 13.642-1.736 9.27 4.373 18.192 13.642 19.928 54.962 10.463 109.098 5.709 155.675-4.542 46.091-10.144 84.97-25.752 109.67-37.174Z"/>
      <path d="M676.599 471.13H565.697c0 61.25 49.652 110.903 110.902 110.903S787.502 532.38 787.502 471.13H676.599Z"/>
      <path fill-rule="nonzero" d="M579.51 466.383c-2.622 9.048 2.587 18.51 11.636 21.132 9.048 2.621 18.51-2.588 21.132-11.637l64.32-222.338 64.32 222.338c2.621 9.05 12.083 14.258 21.13 11.637 9.05-2.622 14.258-12.084 11.637-21.132l-80.29-277.543c-1.206-6.077-5.678-11.286-12.04-13.127-9.082-2.628-18.575 2.605-21.203 11.687l.06.017-80.703 278.966Z"/>
      <path d="M110.903 471.13H0c0 61.25 49.653 110.903 110.903 110.903 61.25 0 110.902-49.653 110.902-110.903H110.903Z"/>
      <path fill-rule="nonzero" d="M13.815 466.383c-2.621 9.048 2.588 18.51 11.636 21.132 9.048 2.621 18.51-2.588 21.132-11.637l64.32-222.338 64.319 222.338c2.622 9.05 12.084 14.258 21.132 11.637 9.048-2.622 14.257-12.084 11.636-21.132L127.7 188.84c-1.207-6.077-5.679-11.286-12.04-13.127-9.082-2.628-18.576 2.605-21.203 11.687l.06.017-80.702 278.966Z"/>
    </g>
    <path d="M0 0h1050v1050H0z"/>
  </g>
</svg>