<svg xmlns="http://www.w3.org/2000/svg" viewBox="0 0 1050 1052">
  <g fill="none" fill-rule="evenodd">
    <g fill="currentColor">
      <path fill-rule="nonzero" d="M887.737 745.423c13.278 3.414 26.811-4.582 30.225-17.86 3.414-13.279-4.582-26.811-17.86-30.225-64.63-16.43-90.744-82.936-117.076-149.996-25.747-65.572-51.68-131.598-112.493-166.874-35.276-60.812-101.302-86.745-166.874-112.493C436.6 241.643 370.093 215.53 353.664 150.9c-3.414-13.279-16.947-21.275-30.225-17.86-13.279 3.413-21.275 16.946-17.86 30.224 22.652 89.111 100.972 119.864 179.944 150.874 58.85 23.107 118.116 46.387 144.162 95.035a24.76 24.76 0 0 0 11.088 11.625l.019-.037c49.357 25.754 72.8 85.45 96.07 144.717 31.01 78.972 61.764 157.292 150.874 179.945h.001Z"/>
      <path fill-rule="nonzero" d="M894.182 730.406a8.264 8.264 0 0 0-2.976-16.257L339.79 814.19a8.265 8.265 0 0 0-6.64 9.617 8.265 8.265 0 0 0 9.617 6.64l551.414-100.04Zm-673.63-22.178a8.265 8.265 0 0 0 16.257 2.976l100.04-551.413a8.264 8.264 0 0 0-16.257-2.977l-100.04 551.414Z"/>
      <path d="M826.46 224.537v168.591l-168.59-168.59z"/>
      <path fill-rule="nonzero" d="M765.516 308.838c6.45-6.45 6.45-16.907 0-23.357-6.45-6.45-16.907-6.45-23.356 0L317.928 709.713c-6.45 6.45-6.45 16.907 0 23.356 6.45 6.45 16.907 6.45 23.357 0l424.23-424.231Z"/>
      <path d="M341.282 709.72v112.602l-97.43 97.428V807.147H131.25l97.43-97.428z"/>
    </g>
    <path d="M0 1h1050v1050H0z"/>
  </g>
</svg>