<svg xmlns="http://www.w3.org/2000/svg" viewBox="0 0 1050 1050">
  <g fill="none" fill-rule="evenodd">
    <g fill="currentColor" transform="translate(131.25 167.878)">
      <path d="M369.824 349.273C232.874 172.183 449.8-98.893 675.73 36.665c0 0-87.181 49.985-184.824 47.66l40.684 63.933L420 164.533s-81.83 73.011-5.983 156.44c-13.621 6.841-28.647 16.424-44.192 28.3Z"/>
      <ellipse cx="361.424" cy="423.296" rx="56.38" ry="157.525" transform="rotate(45 361.424 423.296)"/>
      <path fill-rule="nonzero" d="M199.898 277.834c-5.224-.671-10.002 3.02-10.674 8.242-.67 5.224 3.02 10.003 8.244 10.674.37.048 129.017 15.979 130.028 80.516.073 5.266 4.403 9.478 9.67 9.406 5.266-.075 9.478-4.405 9.406-9.671-1.274-81.255-146.258-99.113-146.674-99.167ZM157.653 324.365c-5.224-.671-10.003 3.02-10.674 8.243-.67 5.223 3.02 10.002 8.243 10.673.37.048 129.018 15.98 130.028 80.516.073 5.267 4.403 9.478 9.67 9.406 5.266-.074 9.478-4.404 9.405-9.671-1.272-81.255-146.256-99.113-146.672-99.167ZM117.367 385.864c-5.224-.671-10.003 3.019-10.674 8.242-.67 5.224 3.02 10.003 8.243 10.674.37.048 129.019 15.978 130.028 80.516.074 5.266 4.404 9.478 9.67 9.405 5.267-.074 9.479-4.404 9.406-9.67-1.272-81.255-146.258-99.113-146.673-99.167ZM487.86 587.143c.672 5.223 5.45 8.914 10.673 8.243 5.224-.671 8.915-5.45 8.244-10.673-.054-.417-17.914-145.402-99.168-146.674-5.267-.072-9.596 4.14-9.671 9.406-.073 5.267 4.14 9.597 9.406 9.67 64.537 1.01 80.469 129.658 80.516 130.028ZM441.328 629.389c.671 5.223 5.45 8.914 10.674 8.243 5.223-.671 8.913-5.45 8.243-10.674-.054-.416-17.914-145.4-99.169-146.673-5.266-.072-9.596 4.14-9.67 9.406-.072 5.267 4.14 9.596 9.406 9.67 64.537 1.01 80.468 129.659 80.516 130.028ZM379.83 669.671c.671 5.224 5.45 8.914 10.674 8.243 5.223-.67 8.913-5.45 8.242-10.673-.054-.416-17.912-145.401-99.167-146.674-5.266-.072-9.596 4.14-9.67 9.406-.073 5.267 4.14 9.596 9.405 9.67 64.538 1.01 80.469 129.66 80.516 130.028Z"/>
      <path d="M435.15 415.287c177.004 141.882 452.029-76.279 315.685-303.52 0 0-49.984 87.18-47.66 184.825l-63.933-40.685-16.274 111.592s-74.68 83.718-159.291 3.348c-6.893 13.698-16.554 28.811-28.527 44.44ZM246.49 498.364s21.396 24.43 33.6 26.623l-1.52 75.226s-28.587 18.797-43.415-10.713l11.335-91.136ZM239.677 612.04s22.72 14.708 35.092 10.398c0 0-13.097 60.314-38.614 66.83 0 0-37.258-14.567-15.89-31.906l19.412-45.323ZM196.642 671.773s-38.154 18.573-64.418 1.652l-13.581 29.128s57.615 23.58 95.858 3.763l-17.86-34.543ZM61.954 611.829l52.689 52.69-11.821 26.219-64.8-56.125zM41.868 611.768s-11.332 15.364-21.829-5.812L2.16 550.704s3.314-9.364 14.572-11.12c0 0 12.536-2.316 13.739 10.734-.758 16.252 25.507 51.494 11.398 61.45ZM117.084 443.588s-55.347-5.902-68.733 21.133l6.036 34.455-29.689-12.079s-16.3 24.82-.599 42.515c0 0-18.926 10.77-23.82-.285 0 0-11.717-120.521 116.805-85.739Z"/>
    </g>
    <path d="M0 0h1050v1050H0z"/>
  </g>
</svg>