<svg xmlns="http://www.w3.org/2000/svg" viewBox="0 0 1050 1050">
  <g fill="none" fill-rule="evenodd">
    <g fill="currentColor">
      <path d="M412.205 353.988c-78.22-23.543-141.208-96.927-167.098-131.038-5.724 101.831 65.931 171.486 89.587 191.593 19.51-32.48 48.217-50.671 77.511-60.555ZM715.313 414.552c23.645-20.098 95.32-89.757 89.595-191.602-25.89 34.112-88.879 107.499-167.103 131.04 29.293 9.885 58 28.079 77.508 60.562Z"/>
      <path d="m773.568 514.412-50.174-35.837a8.23 8.23 0 0 1-3.817-5.497l.013-.006c-15.532-80.99-75.368-105.632-124.362-111.77-.853.034-1.708.06-2.563.08a8.188 8.188 0 0 1-3.633-.766c-31.596-3.05-57.47 1.228-61.868 2.02a8.225 8.225 0 0 1-3.678.148l.005-.027c-.577-.11-28.164-5.455-62.513-2.139a8.196 8.196 0 0 1-3.63.764c-.852-.02-1.704-.046-2.554-.08-48.93 6.128-108.677 30.706-124.313 111.432a8.227 8.227 0 0 1-3.366 5.505l-.025-.01-50.164 35.83a8.23 8.23 0 0 1-6.365 1.837l.004-.028c-1.061-.145-115.243-15.915-139.316 62.032 34.021-.853 140.27-5.517 176.45-30.732a8.252 8.252 0 0 1 12.847 8.19c-.376 4.35-2.22 29.763 4.572 43.021.156.244.302.498.434.762l-.018.009c.183.363 39.668 79.274 82.812 104.587 5.96-14.184 13.725-26.692 23.271-36.127 12.22-12.076 27.228-19.13 44.988-18.442 15.374.597 32.555 7.103 51.403 21.385 18.849-14.282 36.03-20.788 51.404-21.385 17.759-.689 32.768 6.366 44.987 18.443 8.87 8.766 16.201 20.185 21.976 33.136 39.303-26.67 74.426-94.399 77.822-101.066a8.22 8.22 0 0 1 .684-1.3c6.792-13.26 4.948-38.672 4.573-43.024a8.228 8.228 0 0 1 1.359-6.138 8.24 8.24 0 0 1 11.483-2.045C778.48 572.383 884.73 577.047 918.75 577.9c-23.133-74.906-129.474-63.266-138.68-62.114a8.234 8.234 0 0 1-6.516-1.355l.013-.02v.001Zm-104.362-60.674c-11.404 90.736-100.653 45.616-100.653 45.616 13.386-60.49 100.653-45.616 100.653-45.616Zm-288.413 0s87.267-14.874 100.654 45.616c0 0-89.249 45.12-100.654-45.616Z"/>
      <path d="M903.697 593.83c-39.806-1.652-116.233-7.187-157.349-25.68-.064 9.557-.968 22.004-4.483 32.138 59.321 44.26 128.256 13.773 161.832-6.459ZM308.134 600.274c-3.513-10.132-4.416-22.575-4.48-32.13-41.115 18.494-117.54 24.029-157.347 25.68 33.576 20.23 102.508 50.706 161.827 6.45ZM579.992 665.607c-13.167.51-28.563 6.947-46.238 21.337a8.254 8.254 0 0 1-10.982.456l.014-.028c-17.896-14.691-33.465-21.25-46.762-21.765-12.797-.497-23.782 4.756-32.868 13.735-9.706 9.593-17.358 23.4-22.868 39.178-10.839 31.034-13.232 69.02-6.745 97.962 15.1-13.073 50.762-35.819 114.736-33.95l.122-.002v-.01l.14.007c63.175-1.781 98.685 20.452 114.018 33.563 6.377-28.893 3.958-66.675-6.831-97.57-5.51-15.777-13.162-29.584-22.869-39.177-9.085-8.98-20.072-14.233-32.867-13.736Zm-137.397 37.797s36.192 48.602 65.147 48.602c0 0-88.931 42.397-65.147-48.602Zm99.661 48.602c28.955 0 65.148-48.602 65.148-48.602 23.785 91-65.148 48.602-65.148 48.602Z"/>
      <path d="M635.896 821.174c-14.758-12.23-48.03-32.104-107.172-30.429-.185.02-.374.027-.565.022v-.015c-59.44-1.76-92.816 18.232-107.564 30.48 31.44 3.878 69.392 5.817 107.415 5.817 38.214 0 76.355-1.958 107.886-5.875Z"/>
    </g>
    <path d="M0 0h1050v1050H0z"/>
  </g>
</svg>