<svg xmlns="http://www.w3.org/2000/svg" viewBox="0 0 1050 1052">
  <g fill="none" fill-rule="evenodd">
    <g fill="currentColor" transform="translate(131.25 149.566)">
      <ellipse cx="197.448" cy="394.004" rx="30.554" ry="21.584"/>
      <path fill-rule="nonzero" d="M172.447 332.534a8.718 8.718 0 0 0 8.34 15.311c7.47-4.076 14.316-6.29 20.56-6.965 9.456-1.022 17.716 1.579 24.783 6.57 7.58 5.35 13.952 13.44 19.102 22.876 8.404 15.4 13.466 34.161 15.267 50.808.994 9.188 1.236 18.54 1.465 27.433.416 16.124.796 30.863 5.239 41.654 1.037 2.52 2.505 4.923 4.306 7.098 3.796 4.584 9.315 8.5 15.54 10.588 6.478 2.174 13.759 2.417 20.81-.485a29.988 29.988 0 0 0 7.737-4.661c1.85-1.532 3.91-3.76 6.134-6.164 3.759-4.065 8.354-9.031 9.202-8.597a8.713 8.713 0 0 0 7.929-15.517c-12.587-6.443-22.115 3.858-29.913 12.29-1.645 1.778-3.17 3.426-4.493 4.522-1.098.91-2.18 1.564-3.227 1.995-2.808 1.155-5.85 1.011-8.643.075-3.046-1.022-5.751-2.942-7.61-5.188-.748-.903-1.31-1.782-1.64-2.587-3.228-7.84-3.568-21.016-3.94-35.433-.243-9.406-.499-19.3-1.534-28.87-2.015-18.64-7.754-39.775-17.318-57.3-6.373-11.677-14.473-21.84-24.364-28.824-10.403-7.344-22.617-11.166-36.678-9.645-8.434.912-17.458 3.78-27.054 9.017Z"/>
      <ellipse cx="368.348" cy="371.378" rx="30.554" ry="21.584"/>
      <path fill-rule="nonzero" d="M325.663 519.214c13.488-3.106 28.024-1.802 39.954-.732 70.897 6.36-3.447 40.082-26.596 44.652-35.156 6.942-80.773 4.52-61.657-12.913 12.867-11.732 38.193-28.68 48.3-31.007ZM390.283 334.39a8.715 8.715 0 0 0 8.203-15.38c-.164-.088-57.283-31.263-86.842 26.376a8.713 8.713 0 0 0 15.517 7.929c21.385-41.701 63.002-18.99 63.122-18.926Z"/>
      <path d="M627.69 290.982C639.726 144.881 600.482 65.66 548.844 30.67c-19.005-12.877-39.73-19.758-60.145-21.779-20.404-2.018-40.511.833-58.29 7.416-12.964 4.8-24.647 11.581-34.223 19.883a8.77 8.77 0 0 1-1.47 1.302c-29.28 26.472-15.987 42.99-33.772 60.774-19.1-19.1.14-50.838 15.504-67.293C349.46 11.843 299.949-3.007 243.955.52c-46.435 2.925-97.069 18.607-142.68 55.124-33.927 27.164-59.82 65.723-76.937 111.661C6.685 214.686-1.605 269.86.257 328.496c1.194 37.613 3.804 80.84 14.947 126.282 11.079 45.176 30.645 92.719 65.78 139.406 73.992 98.321 96.61 143.36 103.053 158.683 101.9-.383 235.98-.224 274.593-.167-6.792-28.163-30.146-106.326-85.668-136.5-31.172 8.784-72.096 6.252-125.882-15.725l-.028.034a8.932 8.932 0 0 1-1.062-.52c-12.66-5.84-166.483-82.899-135.772-371.587l-.019-.003a8.75 8.75 0 0 1 16.52-3c34.164 56.02 215.395 68.903 247.478 11.17l-.024-.015c2.152-3.875 6.814-5.475 10.83-3.901 6.11 2.187 93.017 36.535 87.974 223.331 1.008 10.413 18.724 174.619 138.867 196.494 32.192-2.416 63.792-12.915 91.168-29.148 26.036-15.437 48.163-35.997 63.242-59.65 14.86-23.309 22.874-49.668 20.97-77.077-1.28-18.446-7.08-37.461-18.342-56.453-32.946-55.565-100.557-77.79-126.38-84.474.423 27.777 4.01 50.228 9.65 68.364 10.347 33.282 27.568 51.68 44.488 61.776 7.155 4.266 9.904 13.291 13.737 20.525-41.162-6.504-62.907-38.517-74.904-77.105-6.832-21.973-10.878-49.616-10.428-84.378-.002-.165 0-.331.007-.498.19-13.315 1.036-27.671 2.638-43.151l-.017-.001.013-.186.005-.04h-.001ZM358.468 159.378l6.936-43.093 19.57 39.016 43.127-6.721-31.06 30.667 19.72 38.941-38.765-20.062-30.941 30.787 7.101-43.067-38.841-19.913 43.153-6.555Z"/>
    </g>
    <path d="M0 1h1050v1050H0z"/>
  </g>
</svg>